<svg xmlns="http://www.w3.org/2000/svg" xmlns:svg="http://www.w3.org/2000/svg" id="Capa_1" width="128" height="128" x="0" y="0" version="1.1" viewBox="0 0 128 128" xml:space="preserve"><metadata id="metadata43"/><g style="fill:#f38750;fill-opacity:1" id="g6" transform="matrix(0.26910684,0,0,0.21703084,-12.370442,4.0396459)"><g style="fill:#f38750;fill-opacity:1" id="g4"><path id="path850" d="M 256.12237,396.25832 C 156.24272,381.37742 83.72912,294.22074 89.05694,195.45641 90.76984,163.7036 95.1958,146.86726 109.15573,119.00067 122.7013,91.961213 141.1163,69.822613 165.0217,51.838363 231.57884,1.7668029 321.04096,-1.7928371 390.68067,42.859523 c 10.33701,6.628 18.43483,12.95345 17.99517,14.05654 -0.43967,1.1031 -10.99183,12.63872 -23.44924,25.63471 l -22.64979,23.629067 -14.36339,-8.587757 c -40.09297,-23.97134 -94.19316,-22.51852 -134.01269,3.598787 -41.34282,27.11643 -62.26535,80.21077 -51.6206,130.99563 7.4915,35.74107 36.22017,71.58224 68.86678,85.91642 16.61505,7.2952 33.49051,10.48524 55.61823,10.51377 37.18802,0.048 67.0313,-10.63265 84.35416,-30.18952 10.06974,-11.36838 27.82071,-45.74321 27.82071,-53.87496 v -5.5814 h -54.28599 -54.28601 v -33.93095 -33.93094 h 90.94766 90.94768 l 1.47016,13.93593 c 1.98438,18.81012 -2.06301,58.06002 -8.29601,80.45107 -22.64523,81.34927 -82.36304,127.65051 -170.24654,131.99797 -12.83124,0.63473 -30.54711,0.0788 -39.36859,-1.23557 z" style="opacity:1;fill:#f38750;fill-opacity:1;stroke:none;stroke-width:2.79030848;stroke-linecap:round;stroke-linejoin:bevel;stroke-miterlimit:4;stroke-dasharray:none;stroke-opacity:1"/></g></g><text id="text862" x="20.046" y="137.545" transform="scale(1.1190103,0.89364682)" xml:space="preserve" style="font-style:normal;font-variant:normal;font-weight:700;font-stretch:normal;font-size:44.48053741px;line-height:1.25;font-family:Arial;-inkscape-font-specification:'Arial, Bold';font-variant-ligatures:normal;font-variant-caps:normal;font-variant-numeric:normal;font-feature-settings:normal;text-align:start;letter-spacing:0;word-spacing:0;writing-mode:lr-tb;text-anchor:start;fill:#f38750;fill-opacity:1;stroke:none;stroke-width:.46333995"><tspan style="font-style:normal;font-variant:normal;font-weight:700;font-stretch:normal;font-size:44.48053741px;font-family:Arial;-inkscape-font-specification:'Arial, Bold';font-variant-ligatures:normal;font-variant-caps:normal;font-variant-numeric:normal;font-feature-settings:normal;text-align:start;writing-mode:lr-tb;text-anchor:start;fill:#f38750;fill-opacity:1;stroke-width:.46333995" id="tspan860" x="20.046" y="137.545">API</tspan></text><flowRoot style="font-style:normal;font-weight:400;font-size:17.33333397px;line-height:1.25;font-family:sans-serif;letter-spacing:0;word-spacing:0;fill:#000;fill-opacity:1;stroke:none" id="flowRoot864" transform="translate(0,-281.595)" xml:space="preserve"><flowRegion id="flowRegion866"><rect id="rect868" width="287.237" height="163.144" x="-28.637" y="345.379"/></flowRegion><flowPara id="flowPara870"/></flowRoot></svg>