<?xml version="1.0" encoding="UTF-8" standalone="no"?>
<!-- Generator: Adobe Illustrator 19.0.0, SVG Export Plug-In . SVG Version: 6.00 Build 0)  -->

<svg
   xmlns:dc="http://purl.org/dc/elements/1.1/"
   xmlns:cc="http://creativecommons.org/ns#"
   xmlns:rdf="http://www.w3.org/1999/02/22-rdf-syntax-ns#"
   xmlns:svg="http://www.w3.org/2000/svg"
   xmlns="http://www.w3.org/2000/svg"
   xmlns:sodipodi="http://sodipodi.sourceforge.net/DTD/sodipodi-0.dtd"
   xmlns:inkscape="http://www.inkscape.org/namespaces/inkscape"
   version="1.1"
   id="Capa_1"
   x="0px"
   y="0px"
   viewBox="0 0 128 128"
   xml:space="preserve"
   sodipodi:docname="pkg.svg"
   inkscape:version="0.92.4 (5da689c313, 2019-01-14)"
   width="128"
   height="128"><metadata
   id="metadata43"><rdf:RDF><cc:Work
       rdf:about=""><dc:format>image/svg+xml</dc:format><dc:type
         rdf:resource="http://purl.org/dc/dcmitype/StillImage" /><dc:title></dc:title></cc:Work></rdf:RDF></metadata><defs
   id="defs41" /><sodipodi:namedview
   pagecolor="#ffffff"
   bordercolor="#666666"
   borderopacity="1"
   objecttolerance="10"
   gridtolerance="10"
   guidetolerance="10"
   inkscape:pageopacity="0"
   inkscape:pageshadow="2"
   inkscape:window-width="1920"
   inkscape:window-height="1027"
   id="namedview39"
   showgrid="false"
   inkscape:zoom="1.62968"
   inkscape:cx="183.50679"
   inkscape:cy="110.94397"
   inkscape:window-x="-8"
   inkscape:window-y="-8"
   inkscape:window-maximized="1"
   inkscape:current-layer="Capa_1" />
<g
   id="g6"
   transform="matrix(0.26910684,0,0,0.21703084,-12.370442,4.0396459)"
   style="fill:#f38750;fill-opacity:1">
	<g
   id="g4"
   style="fill:#f38750;fill-opacity:1">
		
	<path
   style="opacity:1;fill:#f38750;fill-opacity:1;stroke:none;stroke-width:2.79030848;stroke-linecap:round;stroke-linejoin:bevel;stroke-miterlimit:4;stroke-dasharray:none;stroke-opacity:1"
   d="M 256.12237,396.25832 C 156.24272,381.37742 83.72912,294.22074 89.05694,195.45641 90.76984,163.7036 95.1958,146.86726 109.15573,119.00067 122.7013,91.961213 141.1163,69.822613 165.0217,51.838363 231.57884,1.7668029 321.04096,-1.7928371 390.68067,42.859523 c 10.33701,6.628 18.43483,12.95345 17.99517,14.05654 -0.43967,1.1031 -10.99183,12.63872 -23.44924,25.63471 l -22.64979,23.629067 -14.36339,-8.587757 c -40.09297,-23.97134 -94.19316,-22.51852 -134.01269,3.598787 -41.34282,27.11643 -62.26535,80.21077 -51.6206,130.99563 7.4915,35.74107 36.22017,71.58224 68.86678,85.91642 16.61505,7.2952 33.49051,10.48524 55.61823,10.51377 37.18802,0.048 67.0313,-10.63265 84.35416,-30.18952 10.06974,-11.36838 27.82071,-45.74321 27.82071,-53.87496 v -5.5814 h -54.28599 -54.28601 v -33.93095 -33.93094 h 90.94766 90.94768 l 1.47016,13.93593 c 1.98438,18.81012 -2.06301,58.06002 -8.29601,80.45107 -22.64523,81.34927 -82.36304,127.65051 -170.24654,131.99797 -12.83124,0.63473 -30.54711,0.0788 -39.36859,-1.23557 z"
   id="path850"
   inkscape:connector-curvature="0" /><text
   xml:space="preserve"
   style="font-style:normal;font-weight:normal;font-size:24.42339516px;line-height:1.25;font-family:sans-serif;letter-spacing:0px;word-spacing:0px;fill:#f38750;fill-opacity:1;stroke:none;stroke-width:1.40904188"
   x="276.33203"
   y="493.98972"
   id="text854"
   transform="scale(1.0090173,0.99106327)"><tspan
     sodipodi:role="line"
     id="tspan852"
     x="276.33203"
     y="516.27191"
     style="fill:#f38750;fill-opacity:1;stroke-width:1.40904188" /></text>

</g>
</g>
<g
   id="g8"
   transform="translate(0,-281.595)">
</g>
<g
   id="g10"
   transform="translate(0,-281.595)">
</g>
<g
   id="g12"
   transform="translate(0,-281.595)">
</g>
<g
   id="g14"
   transform="translate(0,-281.595)">
</g>
<g
   id="g16"
   transform="translate(0,-281.595)">
</g>
<g
   id="g18"
   transform="translate(0,-281.595)">
</g>
<g
   id="g20"
   transform="translate(0,-281.595)">
</g>
<g
   id="g22"
   transform="translate(0,-281.595)">
</g>
<g
   id="g24"
   transform="translate(0,-281.595)">
</g>
<g
   id="g26"
   transform="translate(0,-281.595)">
</g>
<g
   id="g28"
   transform="translate(0,-281.595)">
</g>
<g
   id="g30"
   transform="translate(0,-281.595)">
</g>
<g
   id="g32"
   transform="translate(0,-281.595)">
</g>
<g
   id="g34"
   transform="translate(0,-281.595)">
</g>
<g
   id="g36"
   transform="translate(0,-281.595)">
</g>
<text
   xml:space="preserve"
   style="font-style:normal;font-variant:normal;font-weight:bold;font-stretch:normal;font-size:44.48053741px;line-height:1.25;font-family:Arial;-inkscape-font-specification:'Arial, Bold';font-variant-ligatures:normal;font-variant-caps:normal;font-variant-numeric:normal;font-feature-settings:normal;text-align:start;letter-spacing:0px;word-spacing:0px;writing-mode:lr-tb;text-anchor:start;fill:#f38750;fill-opacity:1;stroke:none;stroke-width:0.46333995"
   x="20.046246"
   y="137.54501"
   id="text862"
   transform="scale(1.1190103,0.89364682)"><tspan
     sodipodi:role="line"
     id="tspan860"
     x="20.046246"
     y="137.54501"
     style="font-style:normal;font-variant:normal;font-weight:bold;font-stretch:normal;font-size:44.48053741px;font-family:Arial;-inkscape-font-specification:'Arial, Bold';font-variant-ligatures:normal;font-variant-caps:normal;font-variant-numeric:normal;font-feature-settings:normal;text-align:start;writing-mode:lr-tb;text-anchor:start;fill:#f38750;fill-opacity:1;stroke-width:0.46333995">API</tspan></text>

<flowRoot
   xml:space="preserve"
   id="flowRoot864"
   style="font-style:normal;font-weight:normal;font-size:17.33333397px;line-height:1.25;font-family:sans-serif;letter-spacing:0px;word-spacing:0px;fill:#000000;fill-opacity:1;stroke:none"
   transform="translate(0,-281.595)"><flowRegion
     id="flowRegion866"><rect
       id="rect868"
       width="287.23718"
       height="163.14377"
       x="-28.636938"
       y="345.37885" /></flowRegion><flowPara
     id="flowPara870" /></flowRoot></svg>